<?xml version="1.0" encoding="UTF-8" standalone="no"?>
<!-- Created with Inkscape (http://www.inkscape.org/) -->

<svg
   version="1.1"
   id="svg1"
   width="18.924673"
   height="18.91407"
   viewBox="0 0 18.924673 18.91407"
   sodipodi:docname="audience_icon.svg"
   inkscape:version="1.4.2 (ebf0e94, 2025-05-08)"
   inkscape:export-batch-path="Build/img"
   inkscape:export-batch-name="stepupwebpage2"
   xmlns:inkscape="http://www.inkscape.org/namespaces/inkscape"
   xmlns:sodipodi="http://sodipodi.sourceforge.net/DTD/sodipodi-0.dtd"
   xmlns="http://www.w3.org/2000/svg"
   xmlns:svg="http://www.w3.org/2000/svg">
  <defs
     id="defs1">
    <clipPath
       clipPathUnits="userSpaceOnUse"
       id="clipPath61">
      <path
         d="M 1.4305e-5,0 H 960.00001 V 540 H 1.4305e-5 Z"
         transform="matrix(1,0,0,-1,-532.59999,512.35001)"
         clip-rule="evenodd"
         id="path61" />
    </clipPath>
  </defs>
  <sodipodi:namedview
     id="namedview1"
     pagecolor="#ffffff"
     bordercolor="#000000"
     borderopacity="0.25"
     inkscape:showpageshadow="2"
     inkscape:pageopacity="0.0"
     inkscape:pagecheckerboard="0"
     inkscape:deskcolor="#d1d1d1"
     inkscape:zoom="29.485317"
     inkscape:cx="9.4623367"
     inkscape:cy="9.4453791"
     inkscape:window-width="1280"
     inkscape:window-height="950"
     inkscape:window-x="0"
     inkscape:window-y="46"
     inkscape:window-maximized="1"
     inkscape:current-layer="g56">
    <inkscape:page
       x="0"
       y="0"
       width="18.924673"
       height="18.91407"
       id="page1"
       margin="0"
       bleed="0" />
  </sodipodi:namedview>
  <g
     id="g56"
     inkscape:groupmode="layer"
     inkscape:label="2"
     transform="translate(-901.725,-275.88604)">
    <path
       id="path60"
       d="m 11.085547,-9.3277344 c 0,-0.3574219 0.06445,-0.7060546 0.199219,-1.0429686 0.131836,-0.333985 0.331054,-0.632813 0.597656,-0.890625 l 0.433594,-0.433594 c 0.123046,-0.123047 0.269531,-0.164062 0.433593,-0.117187 0.164063,0.04101 0.269532,0.140625 0.316407,0.304687 l 0.492187,1.6406251 c 0.117188,-0.00586 0.225586,0.00879 0.328125,0.046875 l 0.421875,-0.4101561 c 0.07617,-0.08496 0.175781,-0.128906 0.292969,-0.128906 0.123047,0 0.225586,0.04394 0.304687,0.128906 0.08496,0.08789 0.128907,0.1875 0.128907,0.3046874 0,0.1171875 -0.04395,0.2167968 -0.128907,0.2929687 l -0.410156,0.421875 c 0.03809,0.1113281 0.05273,0.2226563 0.04687,0.3398438 v -0.011719 l 1.652344,0.4570313 c 0.164062,0.046875 0.263672,0.1582031 0.304687,0.328125 0.03809,0.1640625 0,0.3105468 -0.117187,0.4335937 l -0.433594,0.4453125 c -0.257812,0.2666016 -0.55957,0.46875 -0.902344,0.609375 -0.336914,0.140625 -0.685547,0.2080078 -1.042968,0.1992188 -0.140625,-0.00586 -0.278321,-0.023437 -0.410157,-0.046875 -0.08789,-0.014648 -0.169922,-0.038086 -0.246093,-0.070312 l -0.375,-0.09375 -1.3125,1.640625 c -0.219727,0.2753906 -0.498047,0.4453125 -0.832032,0.515625 C 10.499609,-4.4 10.186133,-4.446875 9.8902344,-4.6050781 l -0.5273438,0.5273437 c -0.087891,0.087891 -0.1875,0.1289063 -0.3046875,0.1289063 -0.1171875,0 -0.2197265,-0.041016 -0.3046875,-0.1289063 -0.087891,-0.084961 -0.1289062,-0.1875 -0.1289062,-0.3046875 0,-0.1171875 0.041016,-0.2167969 0.1289062,-0.3046875 L 9.2808594,-5.2144531 C 9.1314453,-5.5103516 9.0875,-5.8238281 9.1519531,-6.1519531 9.2134766,-6.4859375 9.3804687,-6.7642578 9.6558594,-6.9839844 l 1.0898436,-0.8671875 0.539063,-0.4453125 -0.09375,-0.328125 c -0.07031,-0.234375 -0.105469,-0.46875 -0.105469,-0.703125 z m 1.675781,3.7617188 c 0.202149,0.524414 0.304688,1.0634765 0.304688,1.6171875 0,0.618164 -0.117188,1.1953125 -0.351563,1.734375 -0.228516,0.5332031 -0.544922,1.0019531 -0.949219,1.40624997 -0.407226,0.3984375 -0.878906,0.71191407 -1.417968,0.9375 -0.5332035,0.234375 -1.1074223,0.3515625 -1.7226566,0.3515625 -0.609375,0 -1.1835938,-0.1171875 -1.7226563,-0.3515625 C 6.36875,-0.09628906 5.9,-0.40976563 5.4957031,-0.80820313 5.0884766,-1.2125 4.7691406,-1.68125 4.5347656,-2.2144531 4.30625,-2.7535156 4.1949219,-3.3306641 4.1949219,-3.9488281 c 0,-0.609375 0.1113281,-1.1835938 0.3398437,-1.7226563 0.234375,-0.5390625 0.553711,-1.0107422 0.9609375,-1.4179687 C 5.9,-7.49375 6.36875,-7.8101563 6.9019531,-8.0386719 c 0.5390625,-0.234375 1.1132813,-0.3515625 1.7226563,-0.3515625 0.5625,0 1.1015625,0.1025391 1.6171876,0.3046875 l 0.492187,-0.3867187 -0.01172,-0.023437 c -0.09375,-0.3339844 -0.134766,-0.6796875 -0.117188,-1.03125 -0.6416014,-0.225586 -1.3007811,-0.3398438 -1.9804686,-0.3398438 -0.8144532,0 -1.5791016,0.1582031 -2.296875,0.46875 -0.7119141,0.3046875 -1.3417969,0.7324219 -1.8867188,1.2773438 -0.5390625,0.5390625 -0.9609375,1.1660156 -1.265625,1.875 -0.3046875,0.711914 -0.4570312,1.4765625 -0.4570312,2.296875 0,0.8144531 0.1523437,1.5791015 0.4570312,2.296875 0.3046875,0.71191404 0.7265625,1.33593747 1.265625,1.87499997 0.5449219,0.54492188 1.1748047,0.97265623 1.8867188,1.27734373 0.7177734,0.3046875 1.4824218,0.4570313 2.296875,0.4570313 0.8203125,0 1.5849606,-0.1523438 2.2968746,-0.4570313 0.717774,-0.3046875 1.347657,-0.73242185 1.886719,-1.27734373 0.544922,-0.5390625 0.972656,-1.16308593 1.277344,-1.87499997 0.304687,-0.7177735 0.457031,-1.4824219 0.457031,-2.296875 0,-0.6796875 -0.111328,-1.3388672 -0.328125,-1.9804688 -0.05566,0.00879 -0.102539,0.011719 -0.140625,0.011719 -0.298828,0 -0.585937,-0.041016 -0.867187,-0.1289063 l -0.04687,-0.011719 z m -2.660156,1.5703125 c 0,0.023437 0,0.041016 0,0.046875 0,0.4072265 -0.1464845,0.7558593 -0.4335939,1.0429687 -0.28125,0.2900391 -0.6298828,0.4335938 -1.0429687,0.4335938 -0.4072266,0 -0.7558594,-0.1435547 -1.0429688,-0.4335938 -0.290039,-0.2871094 -0.4335937,-0.6357422 -0.4335937,-1.0429687 0,-0.4042969 0.1435547,-0.7529297 0.4335937,-1.0429688 0.2871094,-0.2871094 0.6357422,-0.4335937 1.0429688,-0.4335937 0.014648,0 0.035156,0 0.058594,0 -0.079102,-0.3427735 -0.064453,-0.6826172 0.046875,-1.0195313 0.038086,-0.1640625 0.099609,-0.3105469 0.1875,-0.4453125 -0.09375,-0.00586 -0.1933594,-0.011719 -0.2929687,-0.011719 -0.5390625,0 -1.0371094,0.1347656 -1.4882813,0.3984375 -0.4453125,0.2578125 -0.8027344,0.6152343 -1.0664062,1.0664062 -0.2666016,0.4453125 -0.3984375,0.9433594 -0.3984375,1.4882813 0,0.5478515 0.1318359,1.0429687 0.3984375,1.4882812 0.2636718,0.4453125 0.6210937,0.8027344 1.0664062,1.0664063 0.4511719,0.2666015 0.9492188,0.39843747 1.4882813,0.39843747 0.5449218,0 1.0429687,-0.13183597 1.4882813,-0.39843747 0.451171,-0.2636719 0.811523,-0.6210938 1.078125,-1.0664063 0.263671,-0.4453125 0.398437,-0.9404297 0.398437,-1.4882812 0,-0.099609 -0.0088,-0.1992188 -0.02344,-0.2929688 -0.134766,0.087891 -0.28125,0.1523438 -0.445313,0.1992188 -0.328125,0.1113281 -0.667969,0.1259765 -1.019531,0.046875 z m 0,0"
       style="fill:#000000;fill-opacity:1;fill-rule:nonzero;stroke:none;stroke-width:0.4;stroke-linecap:butt;stroke-linejoin:miter;stroke-miterlimit:10;stroke-dasharray:none;stroke-opacity:1"
       aria-label="🎯"
       transform="matrix(1.3333333,0,0,1.3333333,898.36719,291.92355)"
       clip-path="url(#clipPath61)" />
  </g>
</svg>
