<?xml version="1.0" encoding="UTF-8" standalone="no"?>
<!-- Created with Inkscape (http://www.inkscape.org/) -->

<svg
   version="1.1"
   id="svg1"
   width="18.145269"
   height="13.460644"
   viewBox="0 0 18.145269 13.460644"
   sodipodi:docname="stepupwebpage2.pdf"
   inkscape:version="0.0"
   inkscape:export-batch-path="Build/img"
   inkscape:export-batch-name="stepupwebpage2"
   xmlns:inkscape="http://www.inkscape.org/namespaces/inkscape"
   xmlns:sodipodi="http://sodipodi.sourceforge.net/DTD/sodipodi-0.dtd"
   xmlns="http://www.w3.org/2000/svg"
   xmlns:svg="http://www.w3.org/2000/svg">
  <defs
     id="defs1">
    <clipPath
       clipPathUnits="userSpaceOnUse"
       id="clipPath71">
      <path
         d="M 1.4305e-5,0 H 960.00001 V 540 H 1.4305e-5 Z"
         transform="matrix(1,0,0,-1,-532.59999,411.53001)"
         clip-rule="evenodd"
         id="path71" />
    </clipPath>
  </defs>
  <sodipodi:namedview
     id="namedview1"
     pagecolor="#ffffff"
     bordercolor="#000000"
     borderopacity="0.25"
     inkscape:showpageshadow="2"
     inkscape:pageopacity="0.0"
     inkscape:pagecheckerboard="0"
     inkscape:deskcolor="#d1d1d1"
     inkscape:zoom="0.9375"
     inkscape:cx="1199.4667"
     inkscape:cy="284.26667"
     inkscape:window-width="1280"
     inkscape:window-height="950"
     inkscape:window-x="0"
     inkscape:window-y="46"
     inkscape:window-maximized="1"
     inkscape:current-layer="g56">
    <inkscape:page
       x="0"
       y="0"
       width="18.145269"
       height="13.460644"
       id="page1"
       margin="0"
       bleed="0" />
  </sodipodi:namedview>
  <g
     id="g56"
     inkscape:groupmode="layer"
     inkscape:label="2"
     transform="translate(-934.00056,-282.32096)">
    <path
       id="path70"
       d="m 15.983984,-7.7463672 c -0.196289,-0.2167969 -0.430664,-0.3632812 -0.703125,-0.4335937 -0.27539,-0.076172 -0.547851,-0.084961 -0.820312,-0.023437 -0.275391,0.055664 -0.521485,0.1845703 -0.738281,0.3867187 L 7.5464844,-1.9924609 5.5542969,-4.0432422 c -0.2050782,-0.2109375 -0.4423828,-0.3515625 -0.7148438,-0.421875 -0.2666015,-0.070312 -0.5361328,-0.070312 -0.8085937,0 -0.2753907,0.064453 -0.5214844,0.1962891 -0.7382813,0.3984375 -0.2109375,0.2050781 -0.3515625,0.4423828 -0.421875,0.7148438 -0.070312,0.2753906 -0.076172,0.5478515 -0.011719,0.8203125 0.070312,0.2753906 0.2050781,0.515625 0.4101562,0.7265625 L 6.3511719,1.3708203 C 6.6558594,1.6813672 7.025,1.8425 7.4644531,1.8512891 7.9009766,1.8571484 8.2789062,1.7135937 8.6011719,1.4176953 l 7.3125001,-6.9023437 c 0.216797,-0.2021485 0.366211,-0.4365235 0.445312,-0.703125 0.07617,-0.272461 0.08496,-0.5449219 0.02344,-0.8203125 -0.06445,-0.28125 -0.196289,-0.5273438 -0.398438,-0.7382813 z m 0,0"
       style="fill:#000000;fill-opacity:1;fill-rule:nonzero;stroke:none"
       aria-label="✔"
       transform="matrix(1.3333333,0,0,1.3333333,930.24844,293.31299)"
       clip-path="url(#clipPath71)" />
  </g>
</svg>
