<?xml version="1.0" encoding="UTF-8" standalone="no"?>
<!-- Created with Inkscape (http://www.inkscape.org/) -->

<svg
   version="1.1"
   id="svg1"
   width="17.909454"
   height="16.914509"
   viewBox="0 0 17.909454 16.914509"
   sodipodi:docname="feat_serv_01.svg"
   inkscape:version="1.4.2 (ebf0e94, 2025-05-08)"
   inkscape:export-batch-path="Build/img"
   inkscape:export-batch-name="stepupwebpage2"
   xmlns:inkscape="http://www.inkscape.org/namespaces/inkscape"
   xmlns:sodipodi="http://sodipodi.sourceforge.net/DTD/sodipodi-0.dtd"
   xmlns="http://www.w3.org/2000/svg"
   xmlns:svg="http://www.w3.org/2000/svg">
  <defs
     id="defs1">
    <clipPath
       clipPathUnits="userSpaceOnUse"
       id="clipPath14">
      <path
         d="M 1.4305e-5,0 H 960.00001 V 540 H 1.4305e-5 Z"
         transform="matrix(1,0,0,-1,-519.08002,270.65001)"
         clip-rule="evenodd"
         id="path14" />
    </clipPath>
  </defs>
  <sodipodi:namedview
     id="namedview1"
     pagecolor="#ffffff"
     bordercolor="#000000"
     borderopacity="0.25"
     inkscape:showpageshadow="2"
     inkscape:pageopacity="0.0"
     inkscape:pagecheckerboard="0"
     inkscape:deskcolor="#d1d1d1"
     inkscape:zoom="15"
     inkscape:cx="8.6666667"
     inkscape:cy="21.633333"
     inkscape:window-width="1280"
     inkscape:window-height="950"
     inkscape:window-x="0"
     inkscape:window-y="46"
     inkscape:window-maximized="1"
     inkscape:current-layer="g1">
    <inkscape:page
       x="0"
       y="0"
       width="17.909454"
       height="16.914509"
       id="page1"
       margin="0"
       bleed="0" />
  </sodipodi:namedview>
  <g
     id="g1"
     inkscape:groupmode="layer"
     inkscape:label="1"
     transform="translate(-700.26127,-274.40854)">
    <path
       id="path13"
       d="m 8.3076953,-9.3402344 c 0.084961,-0.084961 0.1435547,-0.1904297 0.1757813,-0.3164062 0.023437,-0.1171875 0.014648,-0.234375 -0.023437,-0.3515624 -0.041016,-0.108399 -0.1113282,-0.202149 -0.2109375,-0.28125 -0.09375,-0.07617 -0.1992188,-0.120117 -0.3164063,-0.128906 l -1.359375,-0.152344 c -0.09375,-0.0059 -0.1875,0.0059 -0.28125,0.03516 -0.087891,0.03223 -0.1640625,0.08203 -0.234375,0.152344 l -2.9882812,2.9882811 c -0.017578,0.017578 -0.029297,0.032227 -0.035156,0.046875 -0.1962891,-0.029297 -0.3867187,-0.014648 -0.5742187,0.046875 -0.1875,0.064453 -0.3515625,0.1640625 -0.4921875,0.3046875 l -0.328125,0.3398438 c -0.1025391,0.102539 -0.1523438,0.2226562 -0.1523438,0.3632812 0,0.1494141 0.049805,0.2753906 0.1523438,0.375 l 2.671875,2.6835938 c 0.014648,0.00879 0.029297,0.020508 0.046875,0.035156 -0.3603516,0.1259766 -0.6767579,0.3251953 -0.9492188,0.5976563 -0.328125,0.328125 -0.5507812,0.711914 -0.6679687,1.1484375 -0.1113282,0.430664 -0.1142579,0.85253904 -0.011719,1.26562497 0.038086,0.17285157 0.1230469,0.3046875 0.2578125,0.3984375 0.1318359,0.09375 0.2753906,0.13476563 0.4335938,0.12890625 0.1640625,-0.008789 0.3076171,-0.0761719 0.4335937,-0.19921875 l 0.9609375,-0.9609375 0.4335938,0.43359375 -0.9609375,0.9609375 C 4.1709766,0.696875 4.1035937,0.8375 4.0889453,0.99570312 4.0801562,1.1597656 4.1182422,1.30625 4.2061328,1.4410156 c 0.09375,0.131836 0.2255859,0.2167969 0.3984375,0.2578125 0.4130859,0.099609 0.8320313,0.09668 1.2539063,-0.011719 0.4277343,-0.1113282 0.8085937,-0.3222657 1.1367187,-0.6328125 0.3193359,-0.31347659 0.5390625,-0.67675784 0.65625,-1.08984378 0.1230469,-0.421875 0.1464844,-0.83496093 0.070312,-1.24218752 l 0.5859375,-0.5859375 3.0117192,3.0234375 c 0.328125,0.328125 0.726563,0.4921875 1.195313,0.4921875 0.46875,0 0.867187,-0.1640625 1.195312,-0.4921875 0.328125,-0.33691404 0.492188,-0.73828123 0.492188,-1.20703123 0,-0.46875 -0.164063,-0.8671875 -0.492188,-1.19531247 l -3.023437,-3.0234375 0.808593,-0.8203125 c 0.404297,0.087891 0.814453,0.070312 1.230469,-0.046875 0.421875,-0.1171875 0.788085,-0.3310547 1.101563,-0.6445313 0.328125,-0.328125 0.544921,-0.7060547 0.65625,-1.1367187 0.117187,-0.4365235 0.123046,-0.8613282 0.02344,-1.2773438 -0.04102,-0.1699219 -0.125977,-0.2988281 -0.257812,-0.3867187 -0.134766,-0.09375 -0.28125,-0.1347657 -0.445313,-0.1289063 -0.158203,0 -0.298828,0.067383 -0.421875,0.1992188 l -0.960937,0.9492187 -0.433594,-0.4335937 0.960937,-0.9492188 c 0.117188,-0.1230469 0.178711,-0.2636719 0.1875,-0.421875 0.0059,-0.1640625 -0.03223,-0.3105469 -0.117187,-0.4453125 -0.08789,-0.1318359 -0.216797,-0.2226563 -0.386719,-0.2695313 -0.416016,-0.09375 -0.837891,-0.08496 -1.265625,0.02344 -0.421875,0.1025386 -0.796875,0.3134761 -1.125,0.6328121 -0.3281254,0.3134765 -0.5566411,0.6796875 -0.6796879,1.1015625 -0.1171875,0.4160156 -0.1347657,0.8291015 -0.046875,1.2421875 L 8.6944141,-6.2464844 8.1201953,-6.8207031 C 8.1817183,-6.94375 8.2022263,-7.0726563 8.1787893,-7.2074219 8.1553523,-7.3392578 8.0967583,-7.4535156 8.003008,-7.5472656 l -0.75,-0.7382813 z m -4.4882812,2.390625 2.765625,-2.765625 0.8085937,0.082031 c -0.087891,0.09375 -0.1699219,0.1816406 -0.2460937,0.2578125 -0.079102,0.070312 -0.1494141,0.1376953 -0.2109375,0.1992187 -0.1582032,0.1494141 -0.28125,0.2753906 -0.375,0.375 -0.087891,0.1025391 -0.1464844,0.2167969 -0.1757813,0.3398438 -0.032227,0.1259765 -0.032227,0.2519531 0,0.375 0.038086,0.1171875 0.1054688,0.2226562 0.1992188,0.3164062 l 0.6679687,0.6679688 -1.7929687,1.7929687 z m 1.359375,3.5976563 0.2109375,-0.2226563 c 0.234375,-0.2255859 0.3574218,-0.5039062 0.375,-0.8320312 l 0.5507812,0.5507812 -0.5507812,0.5625 c -0.1962891,-0.038086 -0.3925782,-0.058594 -0.5859375,-0.058594 z m 1.734375,-1.1015625 -0.5507813,-0.5507813 1.1953125,-1.1953125 0.5390625,0.5507813 z m 1.9804687,1.9921875 1.1953122,-1.2070313 3.023438,3.02343752 c 0.155273,0.1640625 0.234375,0.36328125 0.234375,0.59765625 0,0.234375 -0.08203,0.43359375 -0.246094,0.59765625 -0.164062,0.1640625 -0.360352,0.24609375 -0.585937,0.24609375 -0.234375,0 -0.433594,-0.0791016 -0.597657,-0.234375 z m -6.328125,-3.9375 c 0.084961,-0.076172 0.1875,-0.1171875 0.3046875,-0.1171875 0.1171875,0 0.2138672,0.041016 0.2929688,0.1171875 l 1.6289062,1.6289062 c 0.084961,0.087891 0.1289063,0.1875 0.1289063,0.3046875 0,0.1171875 -0.043945,0.2167969 -0.1289063,0.2929688 L 4.6866016,-4.0550781 2.4600391,-6.2933594 Z m 8.2617192,-2.4140625 c 0.17871,-0.1699219 0.377929,-0.2958985 0.597656,-0.375 0.225586,-0.084961 0.451172,-0.1230469 0.679687,-0.1171875 l -0.832031,0.84375 c -0.134766,0.1259765 -0.199219,0.28125 -0.199219,0.46875 0,0.1875 0.06445,0.3457031 0.199219,0.46875 l 0.679688,0.6796875 c 0.131835,0.1347656 0.287109,0.1992187 0.46875,0.1992187 0.1875,0 0.345703,-0.064453 0.480468,-0.1992187 l 0.832032,-0.8320313 c 0.0059,0.234375 -0.03223,0.4658203 -0.117188,0.6914063 -0.0791,0.2285156 -0.208008,0.430664 -0.386719,0.609375 -0.234375,0.234375 -0.509765,0.3867187 -0.820312,0.4570312 -0.313477,0.070312 -0.618164,0.058594 -0.914063,-0.035156 l -0.246093,-0.082031 -4.4648442,4.5 0.070312,0.2460938 c 0.084961,0.2988281 0.087891,0.60644529 0.011719,0.92578122 -0.070312,0.31347657 -0.2226563,0.58007813 -0.4570313,0.80859375 -0.1816406,0.16992188 -0.3837891,0.29589844 -0.609375,0.375 C 5.5801562,0.89609375 5.3575,0.93125 5.1319141,0.92539062 L 5.9639453,0.09335937 c 0.1318359,-0.13183593 0.1992188,-0.29296875 0.1992188,-0.48046875 0,-0.1875 -0.067383,-0.34277343 -0.1992188,-0.46875 L 5.2842578,-1.5355469 C 5.1494922,-1.6673828 4.9912891,-1.7347656 4.8037891,-1.7347656 c -0.1816407,0 -0.3369141,0.067383 -0.46875,0.1992187 l -0.8320313,0.83203127 c -0.00879,-0.234375 0.026367,-0.46289067 0.1054688,-0.69140627 0.084961,-0.2255859 0.2167968,-0.4277344 0.3984375,-0.609375 0.234375,-0.234375 0.5068359,-0.3867187 0.8203125,-0.4570312 0.3193359,-0.070312 0.6269531,-0.052734 0.9257812,0.046875 l 0.2460938,0.082031 4.4648434,-4.5 -0.08203,-0.234375 c -0.08789,-0.3046875 -0.09375,-0.6123047 -0.02344,-0.9257812 0.07617,-0.319336 0.234375,-0.5917969 0.46875,-0.8203125 z m 0,0"
       style="fill:#000000;fill-opacity:1;fill-rule:nonzero;stroke:none;stroke-width:0.34286;stroke-linecap:butt;stroke-linejoin:miter;stroke-miterlimit:10;stroke-dasharray:none;stroke-opacity:1"
       aria-label="🛠"
       transform="matrix(1.3333333,0,0,1.3333333,698.50667,288.73333)"
       clip-path="url(#clipPath14)" />
  </g>
</svg>
