<?xml version="1.0" encoding="UTF-8" standalone="no"?>
<!-- Created with Inkscape (http://www.inkscape.org/) -->

<svg
   version="1.1"
   id="svg1"
   width="17.347773"
   height="12.863397"
   viewBox="0 0 17.347773 12.863397"
   sodipodi:docname="feat_serv_06.svg"
   inkscape:version="1.4.2 (ebf0e94, 2025-05-08)"
   inkscape:export-batch-path="Build/img"
   inkscape:export-batch-name="stepupwebpage2"
   xmlns:inkscape="http://www.inkscape.org/namespaces/inkscape"
   xmlns:sodipodi="http://sodipodi.sourceforge.net/DTD/sodipodi-0.dtd"
   xmlns="http://www.w3.org/2000/svg"
   xmlns:svg="http://www.w3.org/2000/svg">
  <defs
     id="defs1">
    <clipPath
       clipPathUnits="userSpaceOnUse"
       id="clipPath50">
      <path
         d="M 1.4305e-5,0 H 960.00001 V 540 H 1.4305e-5 Z"
         transform="matrix(1,0,0,-1,-519.08002,68.975004)"
         clip-rule="evenodd"
         id="path50" />
    </clipPath>
  </defs>
  <sodipodi:namedview
     id="namedview1"
     pagecolor="#ffffff"
     bordercolor="#000000"
     borderopacity="0.25"
     inkscape:showpageshadow="2"
     inkscape:pageopacity="0.0"
     inkscape:pagecheckerboard="0"
     inkscape:deskcolor="#d1d1d1"
     inkscape:zoom="32.165514"
     inkscape:cx="8.6738859"
     inkscape:cy="6.4199192"
     inkscape:window-width="1280"
     inkscape:window-height="950"
     inkscape:window-x="0"
     inkscape:window-y="46"
     inkscape:window-maximized="1"
     inkscape:current-layer="g1">
    <inkscape:page
       x="0"
       y="0"
       width="17.347773"
       height="12.863397"
       id="page1"
       margin="0"
       bleed="0" />
  </sodipodi:namedview>
  <g
     id="g1"
     inkscape:groupmode="layer"
     inkscape:label="1"
     transform="translate(-855.49044,-278.89616)">
    <path
       id="path49"
       d="m 8.0733203,-3.6197266 c 0.1875,0 0.3457031,-0.064453 0.4804688,-0.1992187 0.1318359,-0.1318359 0.1992187,-0.2871094 0.1992187,-0.46875 0,-0.1875 -0.067383,-0.3457031 -0.1992187,-0.4804688 C 8.4190234,-4.9 8.2608203,-4.9673828 8.0733203,-4.9673828 c -0.1816406,0 -0.3369141,0.067383 -0.46875,0.1992187 -0.1347656,0.1347657 -0.1992187,0.2929688 -0.1992187,0.4804688 0,0.1816406 0.064453,0.3369141 0.1992187,0.46875 0.1318359,0.1347656 0.2871094,0.1992187 0.46875,0.1992187 z m 0.1640625,2.34375 c -0.5390625,0 -1.0371094,-0.1318359 -1.4882812,-0.3984375 C 6.3037891,-1.9380859 5.9463672,-2.2955078 5.6826953,-2.7408203 5.4160937,-3.1919922 5.2842578,-3.6900391 5.2842578,-4.2291016 c 0,-0.5449218 0.1318359,-1.0429687 0.3984375,-1.4882812 0.2636719,-0.4453125 0.6210938,-0.7998047 1.0664063,-1.0664063 0.4511718,-0.2724609 0.9492187,-0.4101562 1.4882812,-0.4101562 0.5449219,0 1.0429688,0.1376953 1.4882813,0.4101562 0.4511719,0.2666016 0.8115229,0.6210938 1.0781249,1.0664063 0.263672,0.4453125 0.398438,0.9433594 0.398438,1.4882812 0,0.5390625 -0.134766,1.0371094 -0.398438,1.4882813 -0.266602,0.4453125 -0.626953,0.8027344 -1.0781249,1.0664062 -0.4453125,0.2666016 -0.9433594,0.3984375 -1.4882813,0.3984375 z m 0,-4.8515625 c -0.5332031,-0.014648 -0.984375,0.1640625 -1.359375,0.5390625 -0.375,0.375 -0.5625,0.8291016 -0.5625,1.359375 0,0.3457032 0.084961,0.6621094 0.2578125,0.9492188 0.1699219,0.2900391 0.4013672,0.5214844 0.6914063,0.6914062 0.2871093,0.1728516 0.6035156,0.2578125 0.9492187,0.2578125 0.1318359,0 0.1992188,-0.064453 0.1992188,-0.1992187 0,-0.1318359 -0.067383,-0.1992188 -0.1992188,-0.1992188 -0.2753906,0 -0.5244141,-0.064453 -0.75,-0.1992187 -0.2285156,-0.140625 -0.4101562,-0.3222656 -0.5507812,-0.5507813 -0.1347657,-0.2255859 -0.1992188,-0.4746093 -0.1992188,-0.75 0,-0.421875 0.1464844,-0.7763671 0.4453125,-1.0664062 0.2958984,-0.2958984 0.65625,-0.4453125 1.078125,-0.4453125 0.2724609,0.00879 0.5185547,0.082031 0.7382813,0.2226562 0.2255859,0.140625 0.4042968,0.3251954 0.5390625,0.5507813 0.1318359,0.2285156 0.1992187,0.4804687 0.1992187,0.7617187 v 0.3398438 c 0,0.079102 -0.029297,0.1464844 -0.082031,0.1992187 -0.055664,0.055664 -0.1230469,0.082031 -0.1992188,0.082031 -0.079102,0 -0.1464844,-0.026367 -0.1992187,-0.082031 -0.055664,-0.052734 -0.082031,-0.1201171 -0.082031,-0.1992187 v -1.3007813 c 0,-0.1318359 -0.067383,-0.1992187 -0.1992187,-0.1992187 -0.055664,0 -0.1025391,0.020508 -0.140625,0.058594 -0.041016,0.041016 -0.058594,0.087891 -0.058594,0.140625 v 0.035156 C 8.54793,-5.2867187 8.322344,-5.3658203 8.0733206,-5.3658203 c -0.2988281,0 -0.5507812,0.1054687 -0.7617187,0.3164062 -0.2109375,0.2109375 -0.3164063,0.4628907 -0.3164063,0.75 0,0.2988282 0.1054688,0.5507813 0.3164063,0.7617188 0.2109375,0.2109375 0.4628906,0.3164062 0.7617187,0.3164062 0.2958984,0 0.5507813,-0.1054687 0.7617188,-0.3164062 0.052734,0.1025391 0.1318359,0.1875 0.234375,0.2578125 0.1083984,0.064453 0.2285156,0.09375 0.3632812,0.09375 0.1875,0 0.3457031,-0.064453 0.4804688,-0.1992188 C 10.045,-3.5171875 10.112383,-3.6783203 10.112383,-3.8658203 v -0.3398438 c 0,-0.3515625 -0.08789,-0.6708984 -0.2578127,-0.9609375 -0.1640625,-0.2871093 -0.3925781,-0.5185546 -0.6796875,-0.6914062 -0.28125,-0.1787109 -0.5947266,-0.2695313 -0.9375,-0.2695313 z m -6.328125,-1.8984375 v 7.59375004 c 0,0.234375 0.082031,0.43359375 0.2460938,0.59765625 0.1640625,0.16992187 0.3632812,0.2578125 0.5976562,0.2578125 H 13.721758 c 0.234375,0 0.433594,-0.0878906 0.597656,-0.2578125 0.169922,-0.1640625 0.257813,-0.36328125 0.257813,-0.59765625 V -8.0259766 c 0,-0.234375 -0.08203,-0.4335937 -0.246094,-0.5976562 -0.164063,-0.1699219 -0.363281,-0.2578125 -0.597656,-0.2578125 H 2.7530078 c -0.234375,0 -0.4335937,0.087891 -0.5976562,0.2578125 -0.1640625,0.1640625 -0.2460938,0.3632812 -0.2460938,0.5976562 z m 0.84375,0 v -0.011719 H 13.733477 v 0.2226562 l -2.683594,1.6992188 c 0.155273,0.2431641 0.28125,0.4980469 0.375,0.7617187 l 2.308594,-1.4648437 v 5.4023437 L 11.35457,-2.9283203 c -0.111328,0.2578125 -0.251953,0.5039062 -0.421875,0.7382812 l 2.765625,1.75781254 H 2.7881641 L 5.5420703,-2.1900391 C 5.3692187,-2.415625 5.2285937,-2.6617187 5.1201953,-2.9283203 l -2.3671875,1.5117187 v -5.4023437 l 2.296875,1.4648437 c 0.09375,-0.2636718 0.2226563,-0.5185546 0.3867188,-0.7617187 L 2.7530078,-7.8150391 Z m 0,0"
       style="fill:#000000;fill-opacity:1;fill-rule:nonzero;stroke:none;stroke-width:0.34286;stroke-linecap:butt;stroke-linejoin:miter;stroke-miterlimit:10;stroke-dasharray:none;stroke-opacity:1"
       aria-label="📧"
       transform="matrix(1.3333333,0,0,1.3333333,853.17334,290.96666)"
       clip-path="url(#clipPath50)" />
  </g>
</svg>
