<?xml version="1.0" encoding="UTF-8" standalone="no"?>
<!-- Created with Inkscape (http://www.inkscape.org/) -->

<svg
   version="1.1"
   id="svg1"
   width="17.380409"
   height="17.386452"
   viewBox="0 0 17.380409 17.386452"
   sodipodi:docname="feat_serv_05.svg"
   inkscape:version="1.4.2 (ebf0e94, 2025-05-08)"
   inkscape:export-batch-path="Build/img"
   inkscape:export-batch-name="stepupwebpage2"
   xmlns:inkscape="http://www.inkscape.org/namespaces/inkscape"
   xmlns:sodipodi="http://sodipodi.sourceforge.net/DTD/sodipodi-0.dtd"
   xmlns="http://www.w3.org/2000/svg"
   xmlns:svg="http://www.w3.org/2000/svg">
  <defs
     id="defs1">
    <clipPath
       clipPathUnits="userSpaceOnUse"
       id="clipPath38">
      <path
         d="M 1.4305e-5,0 H 960.00001 V 540 H 1.4305e-5 Z"
         transform="matrix(1,0,0,-1,-519.08002,112.2)"
         clip-rule="evenodd"
         id="path38" />
    </clipPath>
  </defs>
  <sodipodi:namedview
     id="namedview1"
     pagecolor="#ffffff"
     bordercolor="#000000"
     borderopacity="0.25"
     inkscape:showpageshadow="2"
     inkscape:pageopacity="0.0"
     inkscape:pagecheckerboard="0"
     inkscape:deskcolor="#d1d1d1"
     inkscape:zoom="32.105112"
     inkscape:cx="8.6902049"
     inkscape:cy="8.7057787"
     inkscape:window-width="1280"
     inkscape:window-height="950"
     inkscape:window-x="0"
     inkscape:window-y="46"
     inkscape:window-maximized="1"
     inkscape:current-layer="g1">
    <inkscape:page
       x="0"
       y="0"
       width="17.380409"
       height="17.386452"
       id="page1"
       margin="0"
       bleed="0" />
  </sodipodi:namedview>
  <g
     id="g1"
     inkscape:groupmode="layer"
     inkscape:label="1"
     transform="translate(-822.41382,-277.64898)">
    <path
       id="path37"
       d="m 4.0069141,-10.512891 -0.011719,0.01172 c -0.1640625,0.04102 -0.2929687,0.128906 -0.3867187,0.269531 -0.09375,0.134766 -0.1376954,0.2812504 -0.1289063,0.4453129 0.00586,0.1640625 0.073242,0.3134765 0.1992188,0.4453125 L 4.7451953,-8.2746094 4.2178516,-7.7472656 3.1514453,-8.8136719 C 3.0254687,-8.9367187 2.8760547,-9.0041016 2.7061328,-9.0128906 c -0.1640625,-0.014648 -0.3164062,0.023437 -0.4570312,0.1171875 -0.1347657,0.09375 -0.2197266,0.2285156 -0.2578125,0.3984375 h -0.011719 c -0.1113281,0.4541015 -0.1025391,0.9140625 0.023437,1.3828125 0.1230469,0.4628906 0.3574219,0.8671875 0.703125,1.21875 0.3515625,0.3515625 0.7529297,0.5917969 1.2070313,0.7148437 0.4511718,0.1171875 0.8964843,0.1289063 1.3359375,0.035156 l 3.9140625,3.9257812 c -0.09375,0.44531253 -0.079102,0.8964844 0.046875,1.34765628 0.1318359,0.45996093 0.375,0.86132812 0.7265625,1.20703122 0.3515621,0.3339844 0.7529291,0.5625 1.2070311,0.6796875 0.459961,0.1171875 0.914062,0.1201172 1.359375,0.011719 h 0.01172 c 0.169921,-0.046875 0.298828,-0.140625 0.386718,-0.28125 0.09375,-0.1347656 0.134766,-0.28125 0.128907,-0.4453125 -0.0088,-0.1640625 -0.07617,-0.3105469 -0.199219,-0.43359377 l -1.066406,-1.078125 0.527343,-0.515625 1.066407,1.06640625 c 0.123046,0.12304687 0.269531,0.19042968 0.433593,0.19921875 0.164063,0.005859 0.310547,-0.0351563 0.445313,-0.12890625 0.140625,-0.0878906 0.234375,-0.21679688 0.28125,-0.38671875 0.108398,-0.45996094 0.09961,-0.91992188 -0.02344,-1.38281253 -0.117187,-0.46875 -0.351562,-0.8730468 -0.703125,-1.21875 -0.345703,-0.3574218 -0.74707,-0.5976562 -1.207031,-0.7148437 -0.462891,-0.1230469 -0.914062,-0.1347656 -1.359375,-0.035156 L 7.3467578,-7.2316406 c 0.09375,-0.4511719 0.076172,-0.9082031 -0.046875,-1.3710938 -0.1259766,-0.4599609 -0.3691406,-0.8671875 -0.7265625,-1.21875 -0.3515625,-0.3339846 -0.7587891,-0.5624996 -1.21875,-0.6796876 -0.4628906,-0.117187 -0.9111328,-0.120117 -1.3476562,-0.01172 z m 0.4804687,0.7734379 c 0.2636719,-0.023437 0.5273438,0.011719 0.7851563,0.1054687 0.2636718,0.087891 0.5039062,0.2285157 0.7148437,0.421875 0.2636719,0.2666016 0.4365234,0.5800782 0.515625,0.9375 0.084961,0.3515625 0.073242,0.6972657 -0.035156,1.03125 -0.055664,0.1640625 -0.020508,0.3105469 0.1054687,0.4335938 l 4.2304685,4.265625 c 0.117188,0.1259765 0.260742,0.1582031 0.433594,0.09375 0.328125,-0.1083985 0.667969,-0.1230469 1.019531,-0.046875 0.357422,0.079102 0.670898,0.2519531 0.9375,0.515625 0.210938,0.2050781 0.357422,0.4394531 0.445313,0.703125 0.09375,0.2666015 0.128906,0.53613279 0.105468,0.80859373 L 12.784258,-1.4425781 c -0.140625,-0.131836 -0.310547,-0.1992188 -0.503906,-0.1992188 -0.1875,0 -0.348633,0.067383 -0.480469,0.1992188 l -0.738281,0.74999998 c -0.140625,0.13476562 -0.210938,0.29882812 -0.210938,0.4921875 0,0.1875 0.07031,0.3515625 0.210938,0.4921875 l 0.960937,0.96093752 c -0.266602,0.023437 -0.533203,-0.00879 -0.796875,-0.09375 -0.257812,-0.087891 -0.492187,-0.23144534 -0.703125,-0.43359377 -0.266602,-0.2578125 -0.442383,-0.5625 -0.5273437,-0.9140625 -0.079102,-0.3515625 -0.064453,-0.69433594 0.046875,-1.03125003 0.04687,-0.1640625 0.01172,-0.3046875 -0.105466,-0.421875 L 5.6826953,-5.9191406 C 5.5567187,-6.0421875 5.4131641,-6.0773437 5.2491016,-6.0246094 4.9209766,-5.9132812 4.5811328,-5.8986328 4.2295703,-5.9777344 3.8780078,-6.0626953 3.5733203,-6.2355469 3.3155078,-6.4933594 3.1045703,-6.6955078 2.9522266,-6.9298828 2.8584766,-7.1964844 2.7647266,-7.4601562 2.7295703,-7.7296875 2.7530078,-8.0050781 l 0.9726563,0.9609375 c 0.140625,0.1347656 0.3046875,0.1992187 0.4921875,0.1992187 0.1875,0 0.3515625,-0.064453 0.4921875,-0.1992187 l 0.7382812,-0.7382813 c 0.140625,-0.140625 0.2109375,-0.3046875 0.2109375,-0.4921875 0,-0.1875 -0.070312,-0.3515625 -0.2109375,-0.4921875 z m 0,0"
       style="fill:#000000;fill-opacity:1;fill-rule:nonzero;stroke:none;stroke-width:0.34357;stroke-linecap:butt;stroke-linejoin:miter;stroke-miterlimit:10;stroke-dasharray:none;stroke-opacity:1"
       aria-label="🔧"
       transform="matrix(1.3333333,0,0,1.3333333,820.10667,292)"
       clip-path="url(#clipPath38)" />
  </g>
</svg>
