<?xml version="1.0" encoding="UTF-8" standalone="no"?>
<!-- Created with Inkscape (http://www.inkscape.org/) -->

<svg
   version="1.1"
   id="svg1"
   width="17.347771"
   height="17.363398"
   viewBox="0 0 17.347771 17.363398"
   sodipodi:docname="feat_serv_04.svg"
   inkscape:version="1.4.2 (ebf0e94, 2025-05-08)"
   inkscape:export-batch-path="Build/img"
   inkscape:export-batch-name="stepupwebpage2"
   xmlns:inkscape="http://www.inkscape.org/namespaces/inkscape"
   xmlns:sodipodi="http://sodipodi.sourceforge.net/DTD/sodipodi-0.dtd"
   xmlns="http://www.w3.org/2000/svg"
   xmlns:svg="http://www.w3.org/2000/svg">
  <defs
     id="defs1">
    <clipPath
       clipPathUnits="userSpaceOnUse"
       id="clipPath31">
      <path
         d="M 1.4305e-5,0 H 960.00001 V 540 H 1.4305e-5 Z"
         transform="matrix(1,0,0,-1,-519.08002,155.4)"
         clip-rule="evenodd"
         id="path31" />
    </clipPath>
  </defs>
  <sodipodi:namedview
     id="namedview1"
     pagecolor="#ffffff"
     bordercolor="#000000"
     borderopacity="0.25"
     inkscape:showpageshadow="2"
     inkscape:pageopacity="0.0"
     inkscape:pagecheckerboard="0"
     inkscape:deskcolor="#d1d1d1"
     inkscape:zoom="32.165515"
     inkscape:cx="8.6738858"
     inkscape:cy="8.6894304"
     inkscape:window-width="1280"
     inkscape:window-height="950"
     inkscape:window-x="0"
     inkscape:window-y="46"
     inkscape:window-maximized="1"
     inkscape:current-layer="g1">
    <inkscape:page
       x="0"
       y="0"
       width="17.347771"
       height="17.363398"
       id="page1"
       margin="0"
       bleed="0" />
  </sodipodi:namedview>
  <g
     id="g1"
     inkscape:groupmode="layer"
     inkscape:label="1"
     transform="translate(-789.89044,-278.21179)">
    <path
       id="path30"
       d="m 10.358477,-4.2298828 c 0,0.3837891 -0.09961,0.7353516 -0.292969,1.0546875 -0.1875002,0.3222656 -0.442383,0.5800781 -0.7617189,0.7734375 -0.3222657,0.1875 -0.6767579,0.28125 -1.0664063,0.28125 -0.3837891,0 -0.7353516,-0.09375 -1.0546875,-0.28125 -0.3222656,-0.1933594 -0.5800781,-0.4511719 -0.7734375,-0.7734375 -0.1875,-0.3193359 -0.28125,-0.6708984 -0.28125,-1.0546875 0,-0.3896484 0.09375,-0.7441406 0.28125,-1.0664063 0.1933594,-0.3193359 0.4511719,-0.5742187 0.7734375,-0.7617187 0.3193359,-0.1875 0.6708984,-0.28125 1.0546875,-0.28125 0.3896484,0 0.7441406,0.09375 1.0664063,0.28125 0.3193359,0.1875 0.5742187,0.4423828 0.7617189,0.7617187 0.193359,0.3222657 0.292969,0.6767579 0.292969,1.0664063 z m -0.210938,0 c 0,-0.3515625 -0.08789,-0.6708984 -0.2578124,-0.9609375 C 9.716875,-5.4779297 9.4854297,-5.7064453 9.1983203,-5.8705078 8.9082812,-6.0404297 8.5889453,-6.1283203 8.2373828,-6.1283203 c -0.3457031,0 -0.6621094,0.087891 -0.9492187,0.2578125 -0.2900391,0.1640625 -0.5214844,0.3925781 -0.6914063,0.6796875 -0.1728516,0.2900391 -0.2578125,0.609375 -0.2578125,0.9609375 0,0.3515625 0.084961,0.6738281 0.2578125,0.9609375 0.1699219,0.28125 0.4013672,0.5097656 0.6914063,0.6796875 0.2871093,0.1728516 0.6035156,0.2578125 0.9492187,0.2578125 0.3515625,0 0.6708984,-0.084961 0.9609375,-0.2578125 0.2871094,-0.1699219 0.5185547,-0.3984375 0.6914063,-0.6796875 0.1699214,-0.2871094 0.2578124,-0.609375 0.2578124,-0.9609375 z m 1.476563,0 c 0,-0.46875 -0.09082,-0.9052734 -0.269532,-1.3125 -0.172851,-0.4042969 -0.416015,-0.7646484 -0.726562,-1.078125 -0.304688,-0.3105469 -0.6650393,-0.5537109 -1.0781252,-0.7265625 -0.4072266,-0.1787109 -0.84375,-0.2695313 -1.3125,-0.2695313 -0.4628906,0 -0.8994141,0.09082 -1.3125,0.2695313 -0.4072266,0.1728516 -0.7675781,0.4160156 -1.078125,0.7265625 -0.3046875,0.3134766 -0.5478516,0.6738281 -0.7265625,1.078125 -0.1728516,0.4072266 -0.2578125,0.84375 -0.2578125,1.3125 0,0.4628906 0.084961,0.8994141 0.2578125,1.3125 0.1787109,0.4072266 0.421875,0.7675781 0.7265625,1.078125 0.3105469,0.3046875 0.6708984,0.5478516 1.078125,0.7265625 0.4130859,0.17285155 0.8496094,0.25781249 1.3125,0.25781249 0.46875,0 0.9052734,-0.0849609 1.3125,-0.25781249 0.4130859,-0.1787109 0.7734372,-0.421875 1.0781252,-0.7265625 0.310547,-0.3105469 0.553711,-0.6708984 0.726562,-1.078125 0.178711,-0.4130859 0.269532,-0.8496094 0.269532,-1.3125 z m -5.7070317,0 c 0,-0.4277344 0.1054688,-0.8203125 0.3164063,-1.171875 0.2109375,-0.3515625 0.4921875,-0.6269531 0.84375,-0.8320313 0.3515625,-0.2109375 0.7382812,-0.3164062 1.1601562,-0.3164062 0.4277344,0 0.8203125,0.1054687 1.171875,0.3164062 0.3515625,0.2050782 0.6328122,0.4804688 0.8437502,0.8320313 0.210937,0.3515625 0.316406,0.7441406 0.316406,1.171875 0,0.421875 -0.105469,0.8085937 -0.316406,1.1601562 -0.210938,0.3515625 -0.4921877,0.6328125 -0.8437502,0.84375 -0.3515625,0.2109375 -0.7441406,0.3164063 -1.171875,0.3164063 -0.421875,0 -0.8085937,-0.1054688 -1.1601562,-0.3164063 -0.3515625,-0.2109375 -0.6328125,-0.4921875 -0.84375,-0.84375 C 6.0225391,-3.4212891 5.9170703,-3.8080078 5.9170703,-4.2298828 Z M 3.0459766,-0.94863281 C 3.0283984,-1.2767578 3.1280078,-1.5638672 3.3389453,-1.8158203 l 0.515625,-0.5976563 -0.7851562,-0.070312 C 2.7412891,-2.5072266 2.4629687,-2.6390625 2.2373828,-2.8822266 2.0176562,-3.1224609 1.9092578,-3.4095703 1.9092578,-3.7376953 v -0.984375 c 0,-0.328125 0.1083984,-0.6123047 0.328125,-0.8554688 0.2255859,-0.2402343 0.5039063,-0.3779296 0.8320313,-0.4101562 l 0.7851562,-0.058594 -0.515625,-0.609375 C 3.1280078,-6.9046875 3.0283984,-7.1947266 3.0459766,-7.5228516 c 0.014648,-0.328125 0.140625,-0.609375 0.375,-0.84375 l 0.6914062,-0.6914062 c 0.234375,-0.234375 0.515625,-0.3574219 0.84375,-0.375 0.328125,-0.00586 0.6152344,0.09375 0.8671875,0.3046875 l 0.5976563,0.5039062 0.070312,-0.7851562 c 0.023437,-0.328125 0.1552734,-0.6035157 0.3984375,-0.8320317 0.2402343,-0.216796 0.5302734,-0.328125 0.8671875,-0.328125 h 0.9726562 c 0.328125,0 0.6123047,0.111329 0.8554688,0.328125 0.2402343,0.228516 0.3779296,0.5039067 0.4101562,0.8320317 l 0.058594,0.7851562 0.609375,-0.5039062 c 0.249023,-0.2109375 0.539063,-0.3105469 0.867188,-0.3046875 0.328125,0.017578 0.609375,0.140625 0.84375,0.375 l 0.691406,0.6914062 c 0.234375,0.234375 0.357422,0.515625 0.375,0.84375 0.0059,0.328125 -0.09375,0.6181641 -0.304688,0.8671875 l -0.503906,0.609375 0.785156,0.058594 c 0.328125,0.032227 0.603516,0.1699219 0.832032,0.4101562 0.216796,0.2431641 0.328125,0.5273438 0.328125,0.8554688 v 0.9726562 c 0,0.3369141 -0.111329,0.6269532 -0.328125,0.8671875 -0.228516,0.2431641 -0.503907,0.375 -0.832032,0.3984375 l -0.785156,0.070312 0.503906,0.5976563 c 0.210938,0.2519531 0.310547,0.5390625 0.304688,0.86718749 -0.01758,0.328125 -0.140625,0.609375 -0.375,0.84375 l -0.691406,0.703125 c -0.234375,0.234375 -0.515625,0.35449219 -0.84375,0.36328125 -0.328125,0.0146484 -0.618165,-0.0820313 -0.867188,-0.29296875 L 10.053789,0.16464844 9.9951953,0.94980469 C 9.9629687,1.2779297 9.8252734,1.5503906 9.5850391,1.7701172 9.341875,1.9957031 9.0576953,2.1099609 8.7295703,2.1099609 H 7.7569141 C 7.42,2.1099609 7.1299609,1.9957031 6.8897266,1.7701172 6.6465625,1.5503906 6.5147266,1.2779297 6.4912891,0.94980469 L 6.4209766,0.16464844 5.8233203,0.66855469 C 5.5713672,0.87949219 5.2842578,0.97617188 4.9561328,0.96152344 4.6280078,0.95273438 4.3467578,0.83261719 4.1123828,0.59824219 l -0.6914062,-0.703125 c -0.234375,-0.22558594 -0.3603516,-0.50683594 -0.375,-0.84375 z M 7.4639453,-9.6087891 c -0.079102,0.070312 -0.1230469,0.1611329 -0.1289062,0.2695313 l -0.1054688,1.1953125 c -0.00879,0.1171875 -0.046875,0.2226562 -0.1171875,0.3164062 C 7.0420703,-7.725 6.95125,-7.6517578 6.8428516,-7.6048828 6.7315234,-7.5638672 6.6201953,-7.5521484 6.5030078,-7.5697266 6.3858203,-7.584375 6.2803516,-7.63125 6.1866016,-7.7103516 L 5.2725391,-8.4837891 c -0.079102,-0.070312 -0.1728516,-0.1054687 -0.28125,-0.1054687 -0.1171875,0.00879 -0.2167969,0.052734 -0.2929688,0.1289062 l -0.6914062,0.6914063 c -0.079102,0.079102 -0.1171875,0.1728516 -0.1171875,0.28125 -0.00879,0.1113281 0.023437,0.2080078 0.09375,0.2929687 l 0.7734375,0.9140625 c 0.076172,0.087891 0.1230468,0.1875 0.140625,0.3046875 0.023437,0.1171875 0.011719,0.2314454 -0.035156,0.3398438 -0.046875,0.1113281 -0.1171875,0.1992187 -0.2109375,0.2695312 -0.09375,0.070312 -0.1992187,0.1142579 -0.3164062,0.1289063 l -1.1953125,0.09375 c -0.1113282,0.00879 -0.2050782,0.055664 -0.28125,0.140625 -0.070312,0.079102 -0.1054688,0.1728516 -0.1054688,0.28125 v 0.984375 c 0,0.1113281 0.035156,0.2050781 0.1054688,0.28125 0.076172,0.079102 0.1699218,0.1259766 0.28125,0.140625 l 1.1953125,0.09375 c 0.1171875,0.00879 0.2226562,0.046875 0.3164062,0.1171875 0.09375,0.070312 0.1640625,0.1611328 0.2109375,0.2695312 0.046875,0.1113282 0.058594,0.2226563 0.035156,0.3398438 -0.017578,0.1171875 -0.064453,0.2226562 -0.140625,0.3164062 l -0.7734375,0.9140625 c -0.070312,0.087891 -0.1025391,0.1845704 -0.09375,0.29296879 0,0.11132812 0.038086,0.20507812 0.1171875,0.28125 L 4.6983203,5.859375e-4 C 4.7744922,0.07675781 4.8741016,0.12070313 4.9912891,0.12949219 c 0.1083984,0 0.2021484,-0.03515625 0.28125,-0.10546875 l 0.9140625,-0.7734375 c 0.09375,-0.0761719 0.1992187,-0.12304688 0.3164062,-0.140625 0.1171875,-0.0234375 0.2285156,-0.0117188 0.3398438,0.0351563 0.1083984,0.046875 0.1992187,0.1171875 0.2695312,0.2109375 0.070312,0.10253906 0.1083984,0.2109375 0.1171875,0.328125 l 0.1054688,1.1953125 c 0.00586,0.10839844 0.049805,0.19921866 0.1289062,0.26953116 0.076172,0.076172 0.1757813,0.1171875 0.2929688,0.1171875 h 0.9726562 c 0.1083984,0 0.2050781,-0.041016 0.2929688,-0.1171875 0.076172,-0.070312 0.1201171,-0.16113272 0.1289062,-0.26953116 l 0.1054688,-1.1953125 c 0.00586,-0.12304688 0.046875,-0.234375 0.1171875,-0.328125 0.070312,-0.09375 0.1582031,-0.1640625 0.2695312,-0.2109375 0.1083984,-0.046875 0.2226563,-0.0585938 0.3398438,-0.0351563 0.1171874,0.0175781 0.2167964,0.0644531 0.3046874,0.140625 l 0.914063,0.7734375 c 0.08496,0.0703125 0.18164,0.10546875 0.292968,0.10546875 0.108399,-0.008789 0.202149,-0.05273438 0.28125,-0.1289062525 L 12.467852,-0.69082031 c 0.07617,-0.0761719 0.120117,-0.16992188 0.128906,-0.28125 0,-0.10839839 -0.03516,-0.20507809 -0.105469,-0.29296879 l -0.773437,-0.9140625 c -0.07031,-0.09375 -0.117188,-0.1992187 -0.140625,-0.3164062 -0.01758,-0.1171875 0,-0.2285156 0.04687,-0.3398438 0.03808,-0.1083984 0.108398,-0.1992187 0.210937,-0.2695312 0.09375,-0.070312 0.199219,-0.1083984 0.316406,-0.1171875 l 1.195313,-0.09375 c 0.108398,-0.014648 0.202148,-0.061523 0.28125,-0.140625 0.07031,-0.076172 0.105469,-0.1699219 0.105469,-0.28125 v -0.984375 c 0,-0.1083984 -0.03516,-0.2050781 -0.105469,-0.2929688 -0.0791,-0.076172 -0.172852,-0.1201171 -0.28125,-0.1289062 L 12.15144,-5.2494141 c -0.117187,-0.00586 -0.222656,-0.046875 -0.316406,-0.1171875 -0.102539,-0.070312 -0.172852,-0.1582031 -0.210937,-0.2695312 -0.04687,-0.1083984 -0.06445,-0.2226563 -0.04687,-0.3398438 0.02344,-0.1171875 0.07031,-0.2167968 0.140625,-0.3046875 l 0.773437,-0.9140625 c 0.07031,-0.084961 0.105469,-0.1816406 0.105469,-0.2929687 -0.0088,-0.1083984 -0.05274,-0.2021484 -0.128906,-0.28125 l -0.691407,-0.6914063 c -0.0791,-0.076172 -0.172851,-0.1201171 -0.28125,-0.1289062 -0.111328,0 -0.208008,0.035156 -0.292968,0.1054687 l -0.914063,0.7734375 c -0.08789,0.070312 -0.1875,0.1171875 -0.3046874,0.140625 -0.1171875,0.017578 -0.2314454,0 -0.3398438,-0.046875 C 9.5323047,-7.6634766 9.4444141,-7.7337891 9.3741016,-7.8275391 9.3037891,-7.9212891 9.2627734,-8.0267578 9.2569141,-8.1439453 L 9.1514453,-9.3392578 c -0.00879,-0.1083984 -0.052734,-0.2021484 -0.1289062,-0.28125 -0.087891,-0.070312 -0.1845704,-0.1054688 -0.2929688,-0.1054688 H 7.7569141 c -0.1171875,0 -0.2167969,0.041016 -0.2929688,0.1171875 z m 0,0"
       style="fill:#000000;fill-opacity:1;fill-rule:nonzero;stroke:none;stroke-width:0.34286;stroke-linecap:butt;stroke-linejoin:miter;stroke-miterlimit:10;stroke-dasharray:none;stroke-opacity:1"
       aria-label="⚙"
       transform="matrix(1.3333333,0,0,1.3333333,787.57334,292.53333)"
       clip-path="url(#clipPath31)" />
  </g>
</svg>
