<?xml version="1.0" encoding="UTF-8" standalone="no"?>
<!-- Created with Inkscape (http://www.inkscape.org/) -->

<svg
   version="1.1"
   id="svg1"
   width="17.367855"
   height="16.234804"
   viewBox="0 0 17.367855 16.234804"
   sodipodi:docname="feat_serv_02.svg"
   inkscape:version="1.4.2 (ebf0e94, 2025-05-08)"
   inkscape:export-batch-path="Build/img"
   inkscape:export-batch-name="stepupwebpage2"
   xmlns:inkscape="http://www.inkscape.org/namespaces/inkscape"
   xmlns:sodipodi="http://sodipodi.sourceforge.net/DTD/sodipodi-0.dtd"
   xmlns="http://www.w3.org/2000/svg"
   xmlns:svg="http://www.w3.org/2000/svg">
  <defs
     id="defs1">
    <clipPath
       clipPathUnits="userSpaceOnUse"
       id="clipPath17">
      <path
         d="M 1.4305e-5,0 H 960.00001 V 540 H 1.4305e-5 Z"
         transform="matrix(1,0,0,-1,-519.08002,256.25001)"
         clip-rule="evenodd"
         id="path17" />
    </clipPath>
  </defs>
  <sodipodi:namedview
     id="namedview1"
     pagecolor="#ffffff"
     bordercolor="#000000"
     borderopacity="0.25"
     inkscape:showpageshadow="2"
     inkscape:pageopacity="0.0"
     inkscape:pagecheckerboard="0"
     inkscape:deskcolor="#d1d1d1"
     inkscape:zoom="32.128321"
     inkscape:cx="8.6839271"
     inkscape:cy="8.1081111"
     inkscape:window-width="1280"
     inkscape:window-height="950"
     inkscape:window-x="0"
     inkscape:window-y="46"
     inkscape:window-maximized="1"
     inkscape:current-layer="g1">
    <inkscape:page
       x="0"
       y="0"
       width="17.367855"
       height="16.234804"
       id="page1"
       margin="0"
       bleed="0" />
  </sodipodi:namedview>
  <g
     id="g1"
     inkscape:groupmode="layer"
     inkscape:label="1"
     transform="translate(-729.0811,-275.00826)">
    <path
       id="path16"
       d="m 11.624102,-2.9658203 c -0.351563,0 -0.653321,-0.1201172 -0.902344,-0.3632813 -0.243164,-0.2490234 -0.363281,-0.5507812 -0.363281,-0.9023437 0,-0.3515625 0.120117,-0.6474609 0.363281,-0.890625 0.249023,-0.2490234 0.550781,-0.375 0.902344,-0.375 0.342773,0 0.638671,0.1259766 0.890625,0.375 0.249023,0.2431641 0.375,0.5390625 0.375,0.890625 0,0.3515625 -0.125977,0.6533203 -0.375,0.9023437 -0.251954,0.2431641 -0.547852,0.3632813 -0.890625,0.3632813 z m 0,-0.421875 c 0.234375,0 0.433593,-0.082031 0.597656,-0.2460938 0.164062,-0.1640625 0.246094,-0.3632812 0.246094,-0.5976562 0,-0.234375 -0.08203,-0.4335938 -0.246094,-0.5976563 -0.164063,-0.1640625 -0.363281,-0.2460937 -0.597656,-0.2460937 -0.234375,0 -0.433594,0.082031 -0.597657,0.2460937 -0.164062,0.1640625 -0.246093,0.3632813 -0.246093,0.5976563 0,0.234375 0.08203,0.4335937 0.246093,0.5976562 0.164063,0.1640625 0.363282,0.2460938 0.597657,0.2460938 z M 8.4600391,-7.3017578 c 0,-0.2578125 -0.099609,-0.4804688 -0.2929688,-0.6679688 -0.1875,-0.1875 -0.4101562,-0.28125 -0.6679687,-0.28125 -0.2578125,0 -0.4804688,0.09375 -0.6679688,0.28125 -0.1875,0.1875 -0.28125,0.4101563 -0.28125,0.6679688 0,0.2666016 0.09375,0.4921875 0.28125,0.6796875 0.1875,0.1875 0.4101563,0.28125 0.6679688,0.28125 0.2578125,0 0.4804687,-0.09375 0.6679687,-0.28125 0.1933594,-0.1875 0.2929688,-0.4130859 0.2929688,-0.6796875 z m -2.53125,1.6875 c 0,-0.2578125 -0.099609,-0.4804688 -0.2929688,-0.6679688 -0.1875,-0.1875 -0.4101562,-0.28125 -0.6679687,-0.28125 -0.2578125,0 -0.4804688,0.09375 -0.6679688,0.28125 -0.1875,0.1875 -0.28125,0.4101563 -0.28125,0.6679688 0,0.2666016 0.09375,0.4921875 0.28125,0.6796875 0.1875,0.1875 0.4101563,0.28125 0.6679688,0.28125 0.2578125,0 0.4804687,-0.09375 0.6679687,-0.28125 0.1933594,-0.1875 0.2929688,-0.4130859 0.2929688,-0.6796875 z m -0.9726563,3.9257812 c -0.2578125,0 -0.4804687,-0.09375 -0.6679687,-0.28125 -0.1875,-0.1933593 -0.28125,-0.421875 -0.28125,-0.6796875 0,-0.2578125 0.09375,-0.4804687 0.28125,-0.6679687 0.1875,-0.1875 0.4101562,-0.28125 0.6679687,-0.28125 0.2636719,0 0.4921875,0.09375 0.6796875,0.28125 0.1875,0.1875 0.28125,0.4101562 0.28125,0.6679687 0,0.2578125 -0.09375,0.4863282 -0.28125,0.6796875 -0.1875,0.1875 -0.4160156,0.28125 -0.6796875,0.28125 z m 3.2929688,0.93750004 c 0,-0.25781254 -0.099609,-0.48046874 -0.2929688,-0.66796874 -0.1875,-0.1875 -0.4101562,-0.28125 -0.6679687,-0.28125 -0.2578125,0 -0.4804688,0.09375 -0.6679688,0.28125 -0.1875,0.1875 -0.28125,0.4101562 -0.28125,0.66796874 0,0.26660156 0.09375,0.4921875 0.28125,0.6796875 0.1875,0.1875 0.4101563,0.28125 0.6679688,0.28125 0.2578125,0 0.4804687,-0.09375 0.6679687,-0.28125 0.1933594,-0.1875 0.2929688,-0.41308594 0.2929688,-0.6796875 z M 8.3311328,2.1083984 C 8.6358203,2.1230469 8.9317187,2.0732422 9.2217578,1.9560547 9.5030078,1.8388672 9.7432422,1.6630859 9.9483203,1.4287109 10.188555,1.1386719 10.32332,0.80761719 10.346758,0.43261719 10.361406,0.04882812 10.258867,-0.296875 10.04207,-0.61035156 9.9717578,-0.71875 9.9190234,-0.83886719 9.8897266,-0.97363281 9.9278125,-1.0585937 10.033281,-1.1083984 10.206133,-1.1259766 c 0.169922,-0.014648 0.401367,-0.023437 0.691406,-0.023437 0.28125,0.00879 0.588867,0 0.925781,-0.023437 0.342774,-0.023437 0.685547,-0.099609 1.03125,-0.234375 0.351563,-0.140625 0.679688,-0.3779296 0.984375,-0.7148437 0.310547,-0.3427735 0.527344,-0.7382813 0.644532,-1.1835938 0.123046,-0.4511718 0.134765,-0.9052734 0.03516,-1.359375 -0.09375,-0.5390625 -0.304688,-1.0693359 -0.632813,-1.59375 C 13.557695,-6.7890625 13.14168,-7.28125 12.643633,-7.7353516 12.142656,-8.1865234 11.583086,-8.5732422 10.967852,-8.8955078 10.185625,-9.2939453 9.38875,-9.5458984 8.5772266,-9.6572266 7.7715625,-9.765625 6.9951953,-9.7392578 6.2451953,-9.5751953 5.5010547,-9.4111328 4.8213672,-9.1181641 4.2061328,-8.6962891 3.5967578,-8.2802734 3.0928516,-7.75 2.6944141,-7.1025391 2.310625,-6.4697266 2.0645312,-5.7841797 1.9561328,-5.0517578 c -0.1025391,0.7353516 -0.058594,1.461914 0.1289063,2.1796875 0.2109375,0.8144531 0.5683593,1.5556641 1.078125,2.22656249 0.5068359,0.67089844 1.125,1.21875 1.8515625,1.640625 C 6.0225391,1.6513672 7.1270312,2.0205078 8.3311328,2.1083984 Z M 7.6162891,-8.8837891 v 0.011719 c 1.0458984,0.00879 2.0332031,0.2519531 2.9648439,0.7265625 0.539062,0.2753906 1.02539,0.609375 1.464844,1.0078125 0.436523,0.3925781 0.799804,0.8144531 1.089843,1.265625 0.28711,0.4541016 0.47168,0.9082031 0.550782,1.359375 0.07031,0.328125 0.06445,0.6533203 -0.01172,0.9726562 -0.08789,0.3222657 -0.240235,0.6064453 -0.457031,0.8554688 -0.219727,0.234375 -0.462891,0.4042969 -0.726563,0.5039062 -0.257812,0.09375 -0.524414,0.1494141 -0.796875,0.1640625 -0.266602,0.017578 -0.527344,0.023437 -0.785156,0.023437 -0.243164,0 -0.480469,0.00879 -0.714844,0.023437 -0.2285156,0.017578 -0.4335937,0.067383 -0.6210937,0.1523438 -0.1875,0.087891 -0.3369141,0.2402344 -0.4453125,0.4570312 -0.070312,0.1962891 -0.09082,0.39257816 -0.058594,0.58593754 0.023437,0.20507812 0.09668,0.38671875 0.2226562,0.55078125 0.1171875,0.22558594 0.1875,0.41601562 0.2109375,0.57421875 C 9.5264435,0.50585857 9.4561315,0.68456951 9.292069,0.88964764 9.1338672,1.0830078 8.9112109,1.2001953 8.6241016,1.2412109 8.3428516,1.2792969 8.0205859,1.2587891 7.6631641,1.1826172 7.3028125,1.1123047 6.9307422,0.99511719 6.5498828,0.83105469 c -0.3837891,-0.1640625 -0.75,-0.3515625 -1.1015625,-0.5625 -0.6328125,-0.36621094 -1.171875,-0.83789063 -1.6171875,-1.41796879 -0.4394531,-0.5859375 -0.75,-1.2304687 -0.9375,-1.9335937 -0.1582031,-0.609375 -0.1875,-1.2216797 -0.09375,-1.8398438 0.084961,-0.6240234 0.2871094,-1.2011718 0.609375,-1.734375 0.4599609,-0.7177734 1.0664063,-1.2773437 1.8164063,-1.6757812 0.75,-0.3896485 1.546875,-0.5742188 2.390625,-0.5507813 z m 0,0"
       style="fill:#000000;fill-opacity:1;fill-rule:nonzero;stroke:none;stroke-width:0.34286;stroke-linecap:butt;stroke-linejoin:miter;stroke-miterlimit:10;stroke-dasharray:none;stroke-opacity:1"
       aria-label="🎨"
       transform="matrix(1.3333333,0,0,1.3333333,726.77334,288.2)"
       clip-path="url(#clipPath17)" />
  </g>
</svg>
